<?xml version="1.0" encoding="UTF-8" standalone="no"?>
<!DOCTYPE svg PUBLIC "-//W3C//DTD SVG 1.1//EN" "http://www.w3.org/Graphics/SVG/1.1/DTD/svg11.dtd">
<svg width="100%" height="100%" viewBox="0 0 78 78" version="1.1" xmlns="http://www.w3.org/2000/svg" xmlns:xlink="http://www.w3.org/1999/xlink" xml:space="preserve" xmlns:serif="http://www.serif.com/" style="fill-rule:evenodd;clip-rule:evenodd;stroke-linejoin:round;stroke-miterlimit:2;">
    <g id="path4844" transform="matrix(0.967666,0,0,0.949444,-275.36,-507.406)">
        <path d="M297.636,587.251C296.196,586.927 294.877,586.156 294.296,585.299C293.855,584.647 293.567,583.917 293.567,583.449C293.567,583.105 293.643,583.035 294.31,582.765C299.298,581.408 300.62,579.526 301.933,578.166C304.297,574.639 304.023,564.04 303.91,555.343C304.047,554.302 306.518,553.668 307.735,555.311C313.723,555.299 323.399,555.367 326.63,555.222C326.389,552.221 325.908,550.361 327.628,550.386C330.35,550.426 329.497,551.932 330.355,555.263C337.768,555.254 341.638,555.219 350.087,555.216C351.171,555.843 350.57,557.983 349.93,558.459C345.346,559.699 344.414,558.13 341.421,558.343C341.402,559.383 341.406,560.119 341.456,561.162C343.635,561.248 347.301,561.264 349.014,561.272C349.509,562.41 349.545,563.307 348.842,564.29C346.215,564.272 342.743,564.217 341.281,564.338C344.677,567.28 352.494,569.533 355.311,569.632C354.296,572.899 352.197,573.822 349.009,573.033C347.799,572.504 342.61,568.697 341.421,567.852C341.381,569.387 341.319,569.528 341.16,571.943C340.45,572.835 339.511,572.862 338.852,572.08C338.401,571.509 338.535,569.199 338.496,568.023C337.335,568.22 336.335,571.915 331.666,572.202C328.854,570.427 329.665,568.999 330.025,568.507C332.501,568.737 337.895,567.585 338.378,564.31C335.553,564.292 334.427,564.306 331.5,564.304C331.068,563.461 330.99,562.626 331.526,561.265C333.714,561.255 336.644,561.273 338.333,561.271C338.439,559.922 338.229,559.237 338.296,558.276C332.903,558.308 325.72,558.295 321.592,558.227C321.541,558.856 321.574,560.185 321.64,561.257C324.517,561.281 326.089,561.247 327.963,561.372C328.762,561.867 328.791,563.698 327.998,564.189C326.419,564.297 323.506,564.229 321.559,564.278C323.333,567.519 329.458,566.708 326.046,569.451C324.594,569.52 322.65,568.514 321.732,567.488L321.76,571.717C320.86,572.666 319.816,572.563 318.763,571.686C318.727,570.881 318.72,569.139 318.724,567.69C317.846,569.419 315.585,570.833 315.21,571.117C312.132,573.45 309.403,573.016 308.807,569.584C312.045,569.518 316.967,567.329 318.578,564.302C316.548,564.289 313.537,564.259 311.71,564.203C311.21,563.156 311.076,562.316 311.766,561.351C314.095,561.216 316.994,561.283 318.664,561.207C318.651,560.379 318.537,558.91 318.544,558.212C315.308,558.247 310.926,558.283 307.712,558.272C307.601,567.027 309.386,579.092 303.877,584.308C303.092,585.353 301.392,586.792 300.87,587.067C300.395,587.317 298.407,587.425 297.636,587.251L297.636,587.251ZM324.842,574.287L314.643,574.417C314.643,574.417 314.62,584.465 314.625,588.464C317.178,588.438 319.518,588.503 322.074,588.532C317.742,593.313 312.275,595.033 306.111,594.851C303.51,597.434 304.928,600.176 309.463,599.516C318.18,598.197 322.362,594.996 325.794,588.574C327.247,588.604 327.919,588.427 329.463,588.562C329.504,591.159 329.507,594.742 329.558,597.374C329.723,598.805 337.877,598.905 340.406,599.051C343.866,599.336 346.695,599.974 350.961,600.074C353.02,599.986 355.611,596.62 355.195,593.831C352.926,593.182 352.829,594.203 350.326,594.75C344.237,594.603 338.309,594.821 332.463,594.683C332.363,592.337 332.474,588.513 332.474,588.513L340.408,588.471C340.408,588.471 340.375,588.123 340.376,589.309C339.132,590.561 338.754,591.359 338.449,592.374C342.023,592.493 346.149,592.523 351.205,592.466C351.647,591.152 350.875,588.404 348.469,587.346C348.22,588.249 348.393,588.375 348.312,590.472C345.592,590.539 344.146,590.487 342.621,590.505C344.28,588.635 345.977,587.586 347.227,585.734C347.488,585.145 347.313,584.477 346.624,584.398C345.619,584.328 344.554,585.513 342.545,587.102C342.225,583.395 342.347,576.642 342.309,574.299L327.899,574.367C327.899,574.367 328.489,572.29 328.468,570.757C327.766,570.112 326.147,570.149 325.575,570.84L324.842,574.287ZM326.458,577.404L326.523,580.371L318.673,580.395L318.633,577.473L326.458,577.404ZM338.427,577.365L338.385,580.379L330.436,580.315L330.524,577.459L338.427,577.365ZM338.437,586.454L330.506,586.435L330.487,583.423L338.481,583.356L338.437,586.454ZM326.629,583.563L326.465,586.426L318.561,586.436L318.599,583.533L326.629,583.563Z" style="fill:white;fill-rule:nonzero;"/>
    </g>
</svg>
