<?xml version="1.0" encoding="UTF-8" standalone="no"?>
<!DOCTYPE svg PUBLIC "-//W3C//DTD SVG 1.1//EN" "http://www.w3.org/Graphics/SVG/1.1/DTD/svg11.dtd">
<svg width="100%" height="100%" viewBox="0 0 78 78" version="1.1" xmlns="http://www.w3.org/2000/svg" xmlns:xlink="http://www.w3.org/1999/xlink" xml:space="preserve" xmlns:serif="http://www.serif.com/" style="fill-rule:evenodd;clip-rule:evenodd;stroke-linejoin:round;stroke-miterlimit:2;">
    <g id="g3420" transform="matrix(0.967666,0,0,0.949444,-365.086,-510.534)">
        <path id="path4746" d="M394.249,595.791C394.249,595.791 391.653,597.866 392.443,601.497C392.924,604.177 399.131,599.206 413.497,598.233C420.047,595.707 413.415,593.315 410.318,594.438C401.919,595.671 398.131,596.294 398.131,596.294L398.286,589.621L415.976,589.373C420.144,595.549 423.445,599.752 439.474,602.38C442.546,603.086 445.987,596.749 443.389,595.731C425.698,595.886 420.741,589.314 420.741,589.314C425.704,589.262 432.97,590.69 434.313,589.194C435.42,588.595 435.605,586.236 434.902,585.865C431.085,585.732 417.718,586.192 417.718,586.192C417.718,586.192 415.826,583.449 415.223,580.557C417.934,580.502 430.964,580.401 430.964,580.401C431.651,577.087 431.524,573.817 431.744,570.253L394.296,570.248C394.702,580.062 394.249,595.791 394.249,595.791L394.249,595.791ZM427.239,573.304L427.275,577.795L399.334,577.718L399.401,573.401L427.239,573.304ZM411.111,580.491C411.835,583.052 412.197,584.099 413.275,586.273C408.782,586.462 399.347,586.307 399.347,586.307L399.317,580.454C399.317,580.454 407.71,580.431 411.111,580.491L411.111,580.491Z" style="fill:rgb(249,253,247);fill-rule:nonzero;"/>
        <path id="path4750" d="M390.342,555.006C390.342,555.006 389.628,556.618 390.333,558.156C390.329,559.438 390.318,563.167 390.313,564.936C389.823,566.179 390.306,567.195 390.306,567.195C390.306,567.195 391.125,567.879 392.462,567.198C400.128,567.207 436.302,567.25 436.302,567.25C436.302,567.25 436.345,560.105 436.358,558.057C437.468,556.272 436.376,554.961 436.376,554.961C436.376,554.961 407.552,554.99 393.14,555.004C391.467,554.119 390.342,555.007 390.342,555.007L390.342,555.006ZM405.334,558.137L405.246,564.139L394.321,564.143L394.359,558.012L405.334,558.137ZM418.167,558.125L418.29,564.15L408.365,564.101L408.352,558.151L418.167,558.125ZM433.307,558.09L433.242,564.12L422.287,564.116L422.29,558.087L433.307,558.09Z" style="fill:rgb(249,253,247);fill-rule:nonzero;"/>
    </g>
</svg>
