<?xml version="1.0" encoding="UTF-8" standalone="no"?>
<!DOCTYPE svg PUBLIC "-//W3C//DTD SVG 1.1//EN" "http://www.w3.org/Graphics/SVG/1.1/DTD/svg11.dtd">
<svg width="100%" height="100%" viewBox="0 0 77 78" version="1.1" xmlns="http://www.w3.org/2000/svg" xmlns:xlink="http://www.w3.org/1999/xlink" xml:space="preserve" xmlns:serif="http://www.serif.com/" style="fill-rule:evenodd;clip-rule:evenodd;stroke-linejoin:round;stroke-miterlimit:2;">
    <g id="path3452" transform="matrix(0.967666,0,0,0.949444,-367.811,-511.486)">
        <path d="M413.018,587.49C413.018,587.49 412.466,589.437 413.01,590.468C413.005,592.454 412.991,597.428 412.985,599.405C412.213,600.7 412.977,602.332 412.977,602.332L431.667,602.326C431.667,602.326 432.433,601.001 431.703,599.312C431.727,597.32 431.786,592.345 431.809,590.375C432.414,589.326 431.843,587.491 431.843,587.491L413.018,587.49ZM428.376,590.462L428.358,593.433L416.759,593.42L416.698,590.496L428.376,590.462ZM428.381,596.417L428.333,599.357L416.754,599.366L416.696,596.396L428.381,596.417ZM420.843,573.627C420.835,574.649 421.569,576.542 421.569,576.542C421.569,576.542 412.755,576.554 410.55,576.618C409.708,577.487 409.659,578.271 411.082,579.079C412.339,578.656 414.715,578.538 416.42,578.884C416.681,579.49 416.784,582.52 416.784,582.52C416.784,582.52 408.867,582.598 407.653,583.113C405.483,583.636 403.207,586.646 407.634,586.462C411.144,585.041 416.387,585.165 422.317,585.137C427.581,585.112 433.811,586.239 438.003,587.025C440.275,586.254 440.792,584.258 440.556,582.563C438.735,582.65 428.855,582.345 428.855,582.345C428.855,582.345 429.056,580.071 429.489,578.627C431.483,578.716 434.298,578.737 435.181,578.279C435.727,577.305 435.712,576.52 434.807,576.293C433.62,575.935 424.238,576.472 424.238,576.472C424.238,576.472 423.843,575.086 423.509,573.944C422.964,572.076 420.858,571.812 420.843,573.627L420.843,573.627ZM426.448,578.588L425.976,582.555L419.025,582.539L418.631,578.619L426.448,578.588ZM427.291,556.883C427.291,556.883 426.471,558.227 427.317,559.703C427.34,562.147 427.427,571.548 427.427,571.548C427.427,571.548 429.575,573.004 432.225,571.663C436.237,571.69 443.869,571.725 443.869,571.725C443.869,571.725 443.891,592.524 443.973,600.611C443.96,603.098 447.773,603.124 447.728,600.853C447.829,592.035 447.782,556.919 447.782,556.919C447.782,556.919 446.344,555.965 444.649,556.837C441.796,556.83 433.391,556.854 430.525,556.847C428.479,556.098 427.291,556.884 427.291,556.884L427.291,556.883ZM443.928,558.923L443.905,562.756L430.361,562.709L430.31,558.82L443.928,558.923ZM443.904,565.774L443.812,569.684L430.411,569.64L430.321,565.734L443.904,565.774ZM397.188,556.764C397.188,556.764 397.431,585.815 396.984,589.977C395.162,594.415 393.105,596.36 392.028,597.085C391.265,598.214 392.82,599.58 394.839,600.873C404.572,604.09 401.632,572.679 401.632,572.679L418.615,572.69C418.615,572.69 418.663,562.023 418.674,559.374C419.554,557.842 418.686,556.794 418.686,556.794C418.686,556.794 417.428,555.677 415.861,556.79C412.878,556.786 403.901,556.773 400.789,556.769C398.499,555.461 397.188,556.764 397.188,556.764L397.188,556.764ZM415.661,563.629L401.191,563.616L401.185,558.91L415.76,559.001L415.661,563.629ZM415.707,570.611L401.217,570.742L401.22,565.752L415.789,565.778L415.707,570.611Z" style="fill:rgb(255,249,249);fill-rule:nonzero;"/>
    </g>
</svg>
