<?xml version="1.0" encoding="UTF-8" standalone="no"?>
<!DOCTYPE svg PUBLIC "-//W3C//DTD SVG 1.1//EN" "http://www.w3.org/Graphics/SVG/1.1/DTD/svg11.dtd">
<svg width="100%" height="100%" viewBox="0 0 77 78" version="1.1" xmlns="http://www.w3.org/2000/svg" xmlns:xlink="http://www.w3.org/1999/xlink" xml:space="preserve" xmlns:serif="http://www.serif.com/" style="fill-rule:evenodd;clip-rule:evenodd;stroke-linejoin:round;stroke-miterlimit:2;">
    <g id="path3092-7" transform="matrix(0.967666,0,0,0.949444,-359.986,-511.303)">
        <path d="M396.21,558.508C396.375,559.677 396.762,563.451 396.762,563.451C396.762,563.451 390.241,563.415 388.511,563.541C385.762,563.741 387.55,568.021 390.483,566.45C392.775,566.403 402.809,566.428 402.809,566.428C398.98,575.284 392.987,579.952 383.765,581.816C383.885,585.345 387.338,586.947 390.058,585.626C392.384,584.416 396.414,580.973 396.414,580.973C396.414,580.973 396.319,596.925 396.34,600.492C396.354,602.711 400.378,602.788 400.37,600.521C400.359,597.19 400.332,579.745 400.332,579.745C400.332,579.745 402.176,580.655 403.984,581.966C405.693,583.206 409.281,581.85 406.49,579.189C403.374,576.22 404.084,577.322 401.785,575.659C407.818,568.499 408.501,563.438 408.501,563.438L400.809,563.389C400.809,563.389 400.295,559.484 400.103,558.366C399.633,555.628 395.828,555.793 396.21,558.508ZM423.824,557.334C423.789,561.009 423.688,565.295 423.688,565.295C423.688,565.295 416.956,565.298 414.857,565.299C413.764,563.987 411.092,565.301 411.092,565.301L411.183,586.392C411.183,586.392 412.876,587.183 414.25,586.365C416.321,586.347 423.612,586.284 423.612,586.284C423.612,586.284 423.807,598.692 423.821,600.964C423.837,603.611 427.533,603.374 427.639,600.876C427.768,597.872 427.848,586.349 427.848,586.349C427.848,586.349 434.012,586.308 435.934,586.295C437.543,587.288 439.384,586.272 439.384,586.272C439.384,586.272 439.377,571.999 439.375,568.523C440.069,567.286 439.374,565.42 439.374,565.42C439.374,565.42 438.081,564.568 436.825,565.394C434.892,565.374 427.775,565.297 427.775,565.297C427.775,565.297 427.601,560.103 427.632,557.29C427.659,554.916 423.848,554.788 423.824,557.334L423.824,557.334ZM423.81,574.244L415.574,574.382L415.663,568.356L423.792,568.37L423.81,574.244ZM435.492,568.443L435.467,574.325L427.673,574.307L427.698,568.46L435.492,568.443ZM435.521,577.304L435.525,583.244L427.648,583.243L427.671,577.286L435.521,577.304ZM414.959,577.362L423.781,577.279L423.695,583.199L415.061,583.238L414.959,577.362Z" style="fill:rgb(255,250,241);fill-rule:nonzero;"/>
    </g>
</svg>
