<?xml version="1.0" encoding="UTF-8" standalone="no"?>
<!DOCTYPE svg PUBLIC "-//W3C//DTD SVG 1.1//EN" "http://www.w3.org/Graphics/SVG/1.1/DTD/svg11.dtd">
<svg width="100%" height="100%" viewBox="0 0 77 78" version="1.1" xmlns="http://www.w3.org/2000/svg" xmlns:xlink="http://www.w3.org/1999/xlink" xml:space="preserve" xmlns:serif="http://www.serif.com/" style="fill-rule:evenodd;clip-rule:evenodd;stroke-linejoin:round;stroke-miterlimit:2;">
    <g id="g3195" transform="matrix(0.967666,0,0,0.949444,-363.517,-508.619)">
        <g id="path3992" transform="matrix(1.03341,0,0,1.05325,288.119,533.738)">
            <path d="M130.073,33.476L123.867,34.515C123.867,34.515 124.124,29.763 124.102,27.879C124.08,25.994 119.98,25.209 119.954,27.353C119.929,29.497 119.96,35.693 119.96,35.693C118.884,36.261 116.624,36.145 115.259,36.89C113.553,37.82 113.041,39.927 114.639,41.081C115.638,41.747 119.994,39.502 119.994,39.502C119.994,39.502 119.471,51.559 119.76,57.672C119.876,58.487 120.985,59.153 124.111,59.555C132.187,60.076 142.474,61.064 148.833,61.761C149.867,61.005 154.173,55.755 151.325,54.225C142.956,56.317 123.771,55.063 123.771,55.063L123.908,38.92L129.789,37.362C129.789,37.362 128.679,46.243 131.288,49.552C134.557,49.593 133.42,44.589 133.717,42.542C133.759,39.119 133.878,35.551 133.878,35.551L141.92,34.908C141.92,34.908 139.759,41.189 139.194,44.431C139.81,45.782 140.877,45.486 141.959,44.801C142.657,43.986 148.123,34.444 146.808,31.248C146.048,30.266 133.488,32.669 133.488,32.669C133.488,32.669 133.581,20.979 133.586,19.953C133.591,18.927 130.244,18.488 130.215,20.791C130.185,23.093 130.073,33.476 130.073,33.476L130.073,33.476Z" style="fill:rgb(255,255,254);fill-rule:nonzero;"/>
        </g>
        <g id="path3994" transform="matrix(1.03341,0,0,1.05325,288.119,533.738)">
            <path d="M102.857,21.784C102.833,24.527 102.812,31.926 102.812,31.926C102.812,31.926 98.881,32.026 96.221,32.026C94.351,32.012 93.084,36.055 96.408,35.611C98.337,34.534 102.682,35.123 102.682,35.123L102.799,47.663C102.799,47.663 95.295,48.555 93.997,51.538C94.019,55.386 97.992,53.342 99.566,52.726C101.711,51.887 104.284,50.98 106.284,50.273C108.891,49.467 111.979,48.883 113.859,47.585C115.792,43.962 106.529,46.902 106.529,46.902L106.561,34.763C106.561,34.763 109.8,34.79 112.954,34.733C114.516,33.922 114.181,32.236 113.314,32.046C110.032,32.003 106.539,32.001 106.539,32.001C106.539,32.001 106.561,24.678 106.557,21.959C106.554,19.24 102.881,19.041 102.857,21.784L102.857,21.784Z" style="fill:rgb(255,255,254);fill-rule:nonzero;"/>
        </g>
    </g>
</svg>
