<?xml version="1.0" encoding="UTF-8" standalone="no"?>
<!DOCTYPE svg PUBLIC "-//W3C//DTD SVG 1.1//EN" "http://www.w3.org/Graphics/SVG/1.1/DTD/svg11.dtd">
<svg width="100%" height="100%" viewBox="0 0 77 78" version="1.1" xmlns="http://www.w3.org/2000/svg" xmlns:xlink="http://www.w3.org/1999/xlink" xml:space="preserve" xmlns:serif="http://www.serif.com/" style="fill-rule:evenodd;clip-rule:evenodd;stroke-linejoin:round;stroke-miterlimit:2;">
    <g id="g3639" transform="matrix(0.967666,0,0,0.949444,-361.305,-509.579)">
        <g id="path3152" transform="matrix(1.03341,0,0,1.05325,287.953,533.712)">
            <path d="M120.94,18.236C118.547,19.22 119.231,23.477 119.22,24.698C118.699,30.384 113.267,35.899 98.804,36.796C97.488,38.545 99.116,41.192 101.876,41.369C110.27,41.286 116.529,38.003 121.31,30.426C126.106,33.931 133.819,38.415 138.616,41.861C140.428,42.227 141.834,41.974 143.972,40.5C145.821,39.225 147.425,37.486 145.602,36.569C138.975,35.801 136.13,34.386 131.306,32.177C129.289,30.82 122.42,27.524 122.42,27.524C122.42,27.524 122.289,25.963 122.53,22.758C122.426,21.616 123.716,18.301 120.94,18.236Z" style="fill:white;fill-rule:nonzero;"/>
        </g>
        <g id="path3158" transform="matrix(1.03341,0,0,1.05325,287.953,533.712)">
            <path d="M129.527,44.251C129.039,47.353 131.131,50.036 133.905,50.92C135.247,50.923 138.117,49.655 137.842,47.269C134.937,47.081 132.374,46.013 129.527,44.251Z" style="fill:white;fill-rule:nonzero;"/>
        </g>
        <g id="path3160" transform="matrix(1.03341,0,0,1.05325,287.953,533.712)">
            <path d="M111.749,44.952C110.166,45.889 108.295,46.002 104.992,46.16C103.747,48.18 105.507,51.787 108.205,51.573C109.919,50.286 112.903,47.418 113.053,45.303C113.101,44.638 112.081,44.755 111.749,44.952Z" style="fill:white;fill-rule:nonzero;"/>
        </g>
        <g id="path3162" transform="matrix(1.03341,0,0,1.05325,287.953,533.712)">
            <path d="M104.716,24.928C104.217,27.739 106.873,30.737 109.724,28.361C110.861,27.326 114.28,24.28 112.502,23.059C107.075,25.63 106.054,23.284 104.716,24.928Z" style="fill:white;fill-rule:nonzero;"/>
        </g>
        <g id="path3164" transform="matrix(1.03341,0,0,1.05325,287.953,533.712)">
            <path d="M129.811,23.176C127.904,23.226 131.083,28.874 133.48,29.202C135.898,29.533 139.11,26.617 137.476,25.328C132.548,25.029 132.982,24.43 129.811,23.176Z" style="fill:white;fill-rule:nonzero;"/>
        </g>
        <g id="path3152-0" transform="matrix(1,0,0,1,-0.166456,-0.0258191)">
            <path d="M412.996,574.749C410.524,575.786 411.23,580.27 411.219,581.555C410.681,587.544 400.287,594.745 385.34,595.691C383.98,597.533 385.663,600.32 388.514,600.507C395.424,601.115 406.617,597.541 413.379,587.762C418.335,591.455 427.956,597.975 432.913,601.605C434.787,601.991 437.107,601.888 439.317,600.335C441.227,598.993 442.644,596.996 440.76,596.032C433,595.744 428.922,592.513 424.335,590.072C422.25,588.641 414.526,584.532 414.526,584.532C414.526,584.532 414.391,582.888 414.639,579.512C414.532,578.31 415.866,574.818 412.996,574.749Z" style="fill:white;fill-rule:nonzero;"/>
        </g>
    </g>
</svg>
