<?xml version="1.0" encoding="UTF-8" standalone="no"?>
<!DOCTYPE svg PUBLIC "-//W3C//DTD SVG 1.1//EN" "http://www.w3.org/Graphics/SVG/1.1/DTD/svg11.dtd">
<svg width="100%" height="100%" viewBox="0 0 77 78" version="1.1" xmlns="http://www.w3.org/2000/svg" xmlns:xlink="http://www.w3.org/1999/xlink" xml:space="preserve" xmlns:serif="http://www.serif.com/" style="fill-rule:evenodd;clip-rule:evenodd;stroke-linejoin:round;stroke-miterlimit:2;">
    <g id="g4661" transform="matrix(0.967666,0,0,0.949444,-443.819,-510.05)">
        <path id="path4466" d="M495.417,555.457C495.304,558.293 495.418,567.919 495.423,571.216C491.379,571.064 476.195,571.433 475.293,571.763C473.379,572.466 473.506,574.955 475.032,575.618C477.12,576.524 486.956,575.914 489.559,575.911C489.555,579.935 487.437,582.972 485.182,586.351C482.91,589.538 479.117,592.525 476.387,594.162C474.177,595.487 472.355,596.471 469.914,596.342C467.963,596.24 468.653,598.27 468.807,599.355C469.101,601.429 473.462,601.645 474.637,601.151C478.516,598.722 481.175,597.335 484.019,594.417C486.171,592.208 488.612,587.811 489.525,586.835C490.812,585.459 493.419,578.278 493.866,576.813C494.36,575.187 494.844,575.33 496.134,575.462L499.973,575.462C500.599,581.319 499.306,598.945 500.891,599.451C507.077,600.525 520.1,602.74 526.039,601.415C527.569,599.993 528.715,596.747 527.865,594.024C519.959,596.09 518.921,595.194 504.206,595.446C503.606,590.326 504.19,581.617 504.205,575.462C509.554,575.462 514.381,575.326 519.858,575.383C521.415,575.399 522.61,571.513 520.346,571.491C511.947,571.325 507.069,571.6 500.169,571.23C500.074,565.943 500.278,560.716 500.08,555.438C500.055,553.167 495.638,553.483 495.417,555.457L495.417,555.457Z" style="fill:white;fill-rule:nonzero;"/>
        <path id="path4468" d="M507.275,559.676C509.607,561.448 510.567,565.416 512.665,565.554C515.476,565.739 517.702,564.066 518.512,562.367C518.958,561.431 510.416,558.942 508.453,558.271C507.406,557.914 506.712,559.248 507.275,559.676Z" style="fill:white;fill-rule:nonzero;"/>
        <path id="path4470" d="M486.811,558.618C483.748,560.209 481.159,560.134 477.602,559.899C475.94,563.358 479.445,565.804 479.688,566.338C480.109,567.264 481.954,567.208 482.68,566.625C485.364,564.468 488.654,562.412 488.572,558.977C488.552,558.104 487.708,558.152 486.811,558.618Z" style="fill:white;fill-rule:nonzero;"/>
    </g>
</svg>
