<?xml version="1.0" encoding="UTF-8" standalone="no"?>
<!DOCTYPE svg PUBLIC "-//W3C//DTD SVG 1.1//EN" "http://www.w3.org/Graphics/SVG/1.1/DTD/svg11.dtd">
<svg width="100%" height="100%" viewBox="0 0 77 78" version="1.1" xmlns="http://www.w3.org/2000/svg" xmlns:xlink="http://www.w3.org/1999/xlink" xml:space="preserve" xmlns:serif="http://www.serif.com/" style="fill-rule:evenodd;clip-rule:evenodd;stroke-linejoin:round;stroke-miterlimit:2;">
    <g id="g3106" transform="matrix(1.02452,0,0,1.00523,-388.674,-538.455)">
        <path id="path3061" d="M422.749,567.737C426.168,567.575 430.526,565.123 432.277,563.459C434.028,561.796 433.173,560.92 431.318,559.971C428.094,560.672 421.411,564.108 418.233,565.481C417.133,566.443 418.189,555.707 416.97,552.93C415.589,549.838 414.066,550.385 413.309,552.706C412.698,559.432 413.277,589.352 413.297,595.441C414.701,597.991 415.806,597.724 417.373,595.596C418.478,591.803 416.605,566.831 418.694,569.442C423.432,572.771 426.967,577.857 430.256,582.162C433.123,585.914 437.278,595.575 445.551,585.507C441.228,585.508 437.72,583.452 430.398,575.699" style="fill:white;fill-rule:nonzero;"/>
        <path id="path3063" d="M394.65,565.578C393.662,566.038 393.638,568.432 394.254,568.674C399.468,568.81 404.101,568.543 407.106,568.78C402.091,579.246 397.487,583.576 388.205,585.165C390.474,593.968 400.172,586.21 402.586,583.101C405.401,579.475 410.561,574.974 411.658,565.513C405.04,565.369 400.397,565.418 394.65,565.578L394.65,565.578Z" style="fill:white;fill-rule:nonzero;"/>
    </g>
</svg>
