<?xml version="1.0" encoding="UTF-8" standalone="no"?>
<!DOCTYPE svg PUBLIC "-//W3C//DTD SVG 1.1//EN" "http://www.w3.org/Graphics/SVG/1.1/DTD/svg11.dtd">
<svg width="100%" height="100%" viewBox="0 0 78 78" version="1.1" xmlns="http://www.w3.org/2000/svg" xmlns:xlink="http://www.w3.org/1999/xlink" xml:space="preserve" xmlns:serif="http://www.serif.com/" style="fill-rule:evenodd;clip-rule:evenodd;stroke-linejoin:round;stroke-miterlimit:2;">
    <g id="path3144" transform="matrix(1,0,0,1,-81.3648,-2.51005)">
        <path d="M129.074,25.414C123.589,27.313 114.887,27.708 109.721,27.87C106.126,27.983 109.165,31.531 111.462,31.193C116.136,30.505 118.289,30.939 118.289,30.939L118.303,36.669L107.543,36.549L107.476,50.401L115.822,50.319C115.822,50.319 113.415,55.407 109.574,59.082C109.186,60.317 110.038,61.132 111.766,61.135C116.391,61.143 125.213,60.991 129.506,60.753C130.196,58.036 129.101,54.139 127.225,52.532C126.051,51.526 124.544,51.745 124.828,53.314C125.215,55.451 125.86,57.446 125.86,57.446L116.546,57.414C116.546,57.414 118.559,54.034 120.496,50.31C124.458,50.325 131.885,50.411 131.885,50.411L131.879,36.606L122.715,36.571L122.741,30.282C122.741,30.282 126.277,29.353 130.818,28.476C133.021,28.051 130.782,24.823 129.074,25.415L129.074,25.414ZM111.715,39.724L118.419,39.713L117.995,46.4L111.766,46.372L111.715,39.724ZM128.337,39.724L128.218,46.512L121.664,46.429L122.203,39.789L128.337,39.724ZM99.695,19.345C99.695,19.345 99.823,45.993 99.764,48.538C97.562,55.474 92.796,55.847 89.193,58.299C96.574,69.902 102.747,56.739 104.518,45.74C104.703,38.631 104.547,23.123 104.547,23.123L134.821,23.188C134.821,23.188 133.99,44.11 135.745,50.802C139.486,64.49 147.984,67.458 150.714,56.807C146.251,55.368 143.946,55.942 140.733,50.305C138.573,41.912 139.709,19.262 139.709,19.262L99.695,19.345Z" style="fill:white;fill-rule:nonzero;"/>
    </g>
</svg>
